<svg width="30" height="30" viewBox="0 0 30 30" xmlns="http://www.w3.org/2000/svg">
    <path d="M14.7586 21.6965h1.3449s.406-.0444.6137-.2664c.191-.204.1848-.5867.1848-.5867s-.0263-1.7925.811-2.0564c.8259-.2602 1.886 1.7323 3.0097 2.4985.8498.5796 1.4955.4527 1.4955.4527l3.0048-.0417s1.5717-.0963.8264-1.3238c-.061-.1003-.4342-.908-2.2342-2.5676-1.8842-1.737-1.6316-1.456.6379-4.4607 1.3822-1.8298 1.9346-2.9468 1.762-3.4252-.1645-.4558-1.1812-.3354-1.1812-.3354l-3.383.0207s-.251-.0339-.437.0766c-.1818.108-.2985.3605-.2985.3605s-.5357 1.4159-1.2495 2.6202c-1.5065 2.5409-2.109 2.6754-2.3552 2.5173-.573-.3677-.4298-1.477-.4298-2.2654 0-2.4624.376-3.4891-.7322-3.7549-.3677-.0881-.6386-.1465-1.5791-.156-1.2073-.0122-2.2288.0037-2.8073.2852-.385.1872-.6819.6043-.5009.6283.2237.0296.73.1358.9984.4986.3468.4687.3346 1.5207.3346 1.5207s.1993 2.8987-.4652 3.2586c-.456.247-1.0816-.2571-2.4247-2.5624-.688-1.1808-1.2077-2.4861-1.2077-2.4861s-.1-.244-.2788-.3745c-.2168-.1582-.5197-.2083-.5197-.2083l-3.215.0209s-.4825.0133-.6598.2218c-.1577.1856-.0126.569-.0126.569s2.5169 5.849 5.367 8.7965c2.6135 2.7028 5.5807 2.5254 5.5807 2.5254" fill="#222"/>
</svg>
