<?xml version="1.0" encoding="UTF-8"?>
<svg width="24px" height="24px" viewBox="0 0 24 24" version="1.1" xmlns="http://www.w3.org/2000/svg" xmlns:xlink="http://www.w3.org/1999/xlink">
    <title>icon-news-video</title>
    <defs>
        <polygon id="path-1" points="0 0 24 0 24 24 0 24"></polygon>
    </defs>
    <g id="icon-news-video" stroke="none" stroke-width="1" fill="none" fill-rule="evenodd">
        <mask id="mask-2" fill="white">
            <use xlink:href="#path-1"></use>
        </mask>
        <use id="BG" fill-opacity="0" fill="#000000" fill-rule="nonzero" xlink:href="#path-1"></use>
        <path d="M8.5,6 C7.675781,6 7,6.675781 7,7.5 L7,16.5 C7,17.324219 7.675781,18 8.5,18 L15.5,18 C16.324219,18 17,17.324219 17,16.5 L17,9.292969 L13.707031,6 L8.5,6 Z M8.5,7 L13,7 L13,10 L16,10 L16,16.5 C16,16.78125 15.78125,17 15.5,17 L8.5,17 C8.21875,17 8,16.78125 8,16.5 L8,7.5 C8,7.21875 8.21875,7 8.5,7 Z M14,7.707031 L15.292969,9 L14,9 L14,7.707031 Z M10,11 L10,15 L14,13 L10,11 Z" id="Shape" fill="#D15C22" mask="url(#mask-2)"></path>
    </g>
</svg>