<?xml version="1.0" encoding="UTF-8"?>
<svg width="24px" height="24px" viewBox="0 0 24 24" version="1.1" xmlns="http://www.w3.org/2000/svg" xmlns:xlink="http://www.w3.org/1999/xlink">
    <title>icon-news-app</title>
    <defs>
        <polygon id="path-1" points="0 0 24 0 24 24 0 24"></polygon>
    </defs>
    <g id="icon-news-app" stroke="none" stroke-width="1" fill="none" fill-rule="evenodd">
        <mask id="mask-2" fill="white">
            <use xlink:href="#path-1"></use>
        </mask>
        <use id="BG" fill-opacity="0" fill="#000000" fill-rule="nonzero" xlink:href="#path-1"></use>
        <path d="M7,6 L7,8 L6.5,8 C5.6774686,8 5,8.6774686 5,9.5 L5,16.5 C5,17.322531 5.6774686,18 6.5,18 L17.5,18 C18.322531,18 19,17.322531 19,16.5 L19,9.5 C19,8.6774686 18.322531,8 17.5,8 L17,8 L17,6 L13,6 L13,8 L11,8 L11,6 L7,6 Z M8,7 L10,7 L10,8 L8,8 L8,7 Z M14,7 L16,7 L16,8 L14,8 L14,7 Z M6.5,9 L17.5,9 C17.781469,9 18,9.2185314 18,9.5 L18,16.5 C18,16.781469 17.781469,17 17.5,17 L6.5,17 C6.2185314,17 6,16.781469 6,16.5 L6,9.5 C6,9.2185314 6.2185314,9 6.5,9 Z" id="Shape" fill="#D15C22" mask="url(#mask-2)"></path>
    </g>
</svg>