<?xml version="1.0" encoding="UTF-8"?>
<svg width="24px" height="24px" viewBox="0 0 24 24" version="1.1" xmlns="http://www.w3.org/2000/svg" xmlns:xlink="http://www.w3.org/1999/xlink">
    <title>icon-news-exchange</title>
    <defs>
        <polygon id="path-1" points="0 0 24 0 24 24 0 24"></polygon>
    </defs>
    <g id="icon-news-exchange" stroke="none" stroke-width="1" fill="none" fill-rule="evenodd">
        <mask id="mask-2" fill="white">
            <use xlink:href="#path-1"></use>
        </mask>
        <use id="BG" fill-opacity="0" fill="#000000" fill-rule="nonzero" xlink:href="#path-1"></use>
        <path d="M17,4 L17,5 L16,5 L16,11 L17,11 L17,12 L18,12 L18,11 L19,11 L19,5 L18,5 L18,4 L17,4 Z M9,7 L9,8 L8,8 L8,14 L9,14 L9,15 L10,15 L10,14 L11,14 L11,8 L10,8 L10,7 L9,7 Z M17,6 L18,6 L18,10 L17,10 L17,6 Z M9,9 L10,9 L10,13 L9,13 L9,9 Z M13,11 L13,12 L12,12 L12,16 L13,16 L13,17 L14,17 L14,16 L15,16 L15,12 L14,12 L14,11 L13,11 Z M5,13 L5,14 L4,14 L4,18 L5,18 L5,19 L6,19 L6,18 L7,18 L7,14 L6,14 L6,13 L5,13 Z M13,13 L14,13 L14,15 L13,15 L13,13 Z M5,15 L6,15 L6,17 L5,17 L5,15 Z" id="Shape" fill="#D15C22" mask="url(#mask-2)"></path>
    </g>
</svg>