<svg width="30" height="30" viewBox="0 0 30 30" xmlns="http://www.w3.org/2000/svg">
    <path d="M26 8.8937c-.7358.3216-1.5265.538-2.3569.6372.8457-.502 1.499-1.2925 1.8043-2.2363a8.2966 8.2966 0 0 1-2.6072.9799C22.0922 7.4899 21.0267 7 19.8452 7 17.58 7 15.742 8.8095 15.742 11.0398c0 .3156.0367.6252.1069.9198-3.4102-.1683-6.4326-1.7794-8.4567-4.2232a3.9771 3.9771 0 0 0-.5557 2.035c0 1.4007.7236 2.636 1.8257 3.3605-.6747-.021-1.3067-.2014-1.8593-.505v.0511c0 1.9568 1.4136 3.589 3.2911 3.9617a4.1273 4.1273 0 0 1-1.0807.1413c-.2656 0-.522-.0241-.7724-.0722.522 1.6021 2.0363 2.7744 3.8315 2.8044-1.4014 1.0851-3.172 1.7284-5.0954 1.7284A8.704 8.704 0 0 1 6 21.1875C7.8135 22.3327 9.972 23 12.2891 23c7.547 0 11.6746-6.156 11.6746-11.4913 0-.1773-.003-.3516-.0122-.526.8029-.565 1.499-1.2775 2.0485-2.089" fill="#222"/>
</svg>
