<svg width="36" height="36" viewBox="0 0 36 36" xmlns="http://www.w3.org/2000/svg" fill="#222">
    <path d="M18.25 5.31c-7.02 0-12.71 5.7-12.71 12.71 0 5.61 3.66 10.37 8.65 12.09.62.07.86-.32.86-.63V27.3c-3.51.78-4.29-1.72-4.29-1.72-.55-1.48-1.4-1.87-1.4-1.87-1.17-.78.07-.78.07-.78 1.25.08 1.95 1.33 1.95 1.33 1.17 1.95 2.97 1.4 3.67 1.09.08-.86.47-1.4.78-1.72-2.8-.3-5.77-1.4-5.77-6.31 0-1.4.47-2.5 1.32-3.43a4.43 4.43 0 01.16-3.35s1.1-.32 3.5 1.32a10.9 10.9 0 013.2-.39c1.1 0 2.19.16 3.2.4 2.42-1.65 3.51-1.33 3.51-1.33.7 1.71.23 3.04.16 3.35a5.04 5.04 0 011.32 3.43c0 4.91-2.96 5.92-5.77 6.24.47.39.86 1.17.86 2.34v3.5c0 .32.23.7.86.63a12.72 12.72 0 008.65-12.09A12.81 12.81 0 0018.25 5.31z"/>
</svg>
