<?xml version="1.0" encoding="UTF-8"?>
<svg width="24px" height="24px" viewBox="0 0 24 24" version="1.1" xmlns="http://www.w3.org/2000/svg" xmlns:xlink="http://www.w3.org/1999/xlink">
    <title>icon-news-announcement</title>
    <defs>
        <polygon id="path-1" points="0 0 24 0 24 24 0 24"></polygon>
    </defs>
    <g id="icon-news-announcement" stroke="none" stroke-width="1" fill="none" fill-rule="evenodd">
        <mask id="mask-2" fill="white">
            <use xlink:href="#path-1"></use>
        </mask>
        <use id="BG" fill-opacity="0" fill="#000000" fill-rule="nonzero" xlink:href="#path-1"></use>
        <path d="M17.484375,6 C17.339844,6.003906 17.207031,6.070313 17.113281,6.179688 C17.113281,6.179688 14.800781,9 10,9 L6.5,9 C5.675781,9 5,9.675781 5,10.5 L5,12.546875 L5.929688,17.195313 C6.019531,17.660156 6.4375,18 6.910156,18 L8,18 C8.621094,18 9.101563,17.410156 8.980469,16.804688 L8.980469,16.800781 L8.421875,14 L10,14 C14.800781,14 17.113281,16.820313 17.113281,16.820313 C17.25,16.984375 17.472656,17.042969 17.671875,16.972656 C17.867188,16.898438 18,16.710938 18,16.5 L18,13.011719 C18.582031,12.777344 19,12.191406 19,11.5 C19,10.808594 18.582031,10.222656 18,9.988281 L18,6.5 C18,6.363281 17.945313,6.234375 17.847656,6.140625 C17.75,6.046875 17.621094,5.996094 17.484375,6 Z M17,7.527344 L17,15.472656 C16.078125,14.617188 14.042969,13 10,13 L9,13 L9,10 L10,10 C14.042969,10 16.078125,8.382813 17,7.527344 Z M6.5,10 L8,10 L8,13 L7.199219,13 L8,17 L6.910156,17 L6,12.453125 L6,10.5 C6,10.21875 6.21875,10 6.5,10 Z" id="Shape" fill="#D15C22" mask="url(#mask-2)"></path>
    </g>
</svg>