<svg width="30" height="30" viewBox="0 0 30 30" xmlns="http://www.w3.org/2000/svg">
    <path d="M18 7.0072c-.4805.0468-.918.3242-1.1875.75l-2.7813 4.4062c-.4687-.7305-.832-1.2969-1.0937-1.6562-.3398-.4688-.5625-.6485-.75-.7188l-5.0938-2.5c-.4921-.2383-1.0156-.2344-1.4375.0313-.418.2617-.6562.7109-.6562 1.25v11.125c0 .6757.4492 1.3593 1.0625 1.6562l4.6563 2.2813c.6992.2617 1.2617.164 1.5625-.0313.4414-.289.6875-.789.6875-1.375v-3.3125L17.25 20.976l5.25 2.5625c.4375.1914 1.211.2461 1.75-.0312.461-.2383.6875-.7579.6875-1.3125 0 0 .004-9.3985 0-11.1563-.004-.371-.1875-.8398-.8438-1.2187-.7187-.4102-2.164-1.1485-5.2187-2.6563-.2734-.1328-.586-.1836-.875-.1562zm.3125 2.125a913.2136 913.2136 0 014.1563 2.0625l-4.5313 7.125-2.7188-4.3125 3.0938-4.875zM7 9.4447l3.9375 1.9375.0313 10.1562L7 19.601V9.4447zm5.9375 4.75c.0664.1015 2.2813 3.5625 2.2813 3.5625l-2.2813-1.0938v-2.4687zm10 0v7.3125l-3.5625-1.7188 3.5625-5.5937z" fill="#222"/>
</svg>
