<svg width="30" height="30" viewBox="0 0 30 30" xmlns="http://www.w3.org/2000/svg">
    <path d="M21.5 14.3984c.1992.3008.3984.6016.5 1.1016h-3.1992c0-.1016 0-.3008.0976-.5.1016-.1992.1016-.3008.3008-.5.1016-.1992.3008-.3008.5-.3984.1992-.1016.5-.2032.8008-.2032.3984.1016.8008.2032 1 .5zm-9.1992-.6992c.1992-.1992.3984-.5.3984-.8984 0-.1992 0-.4024-.0976-.6016-.1016-.0976-.2032-.3008-.3008-.3008-.1016-.0976-.3008-.0976-.5-.1992H9.1992V14h2.1992c.3008 0 .6016-.1016.9024-.3008zM11.5 15.3984H9.1992v2.7032H11.5c.1992 0 .3984 0 .6016-.1016.1992 0 .3984-.1016.5-.1992.0976-.1016.2968-.1992.3984-.4024.1016-.1992.1016-.3984.1016-.5976 0-.5-.1016-.9024-.4024-1.1016-.3008-.1992-.6992-.3008-1.1992-.3008zm16.5-8.5v16.2032C28 25.8008 25.8008 28 23.1016 28H6.8984C4.1992 28 2 25.8008 2 23.1016V6.8984C2 4.1992 4.1992 2 6.8984 2h16.2032C25.8008 2 28 4.1992 28 6.8984zm-9.6016 4.7032h4v-1h-4v1zM15.1992 17c0-.6016-.0976-1.1016-.3984-1.6016C14.5 15 14.1016 14.6992 13.5 14.5c.3984-.1992.8008-.5 1-.8008.1992-.3008.3008-.6992.3008-1.1992s-.1016-.8008-.1992-1.1992c-.2032-.3008-.4024-.6016-.6016-.6992-.3008-.2032-.6016-.3008-1-.4024C12.5 10 12.1016 10 11.6016 10H7v9.8008h4.8008c.3984 0 .8984-.1016 1.3008-.1992.3984-.1016.7968-.3008 1.0976-.5.3008-.2032.6016-.5.8008-.9024.1016-.3008.1992-.6992.1992-1.1992zm3.6016-.3008h5.0976c0-.5976 0-1.0976-.0976-1.5976-.1016-.5-.3008-1-.6016-1.3008-.3008-.4024-.6992-.6992-1.0976-.9024-.5-.1992-1-.3984-1.6016-.3984-.5 0-1 .1016-1.5.3008-.3984.1992-.8008.5-1.1992.8008-.3008.2968-.6016.6992-.6992 1.1992-.2032.5-.3008 1-.3008 1.5s.0976 1.0976.3008 1.5c.1992.5.3984.8984.6992 1.1992.3008.3008.6992.6016 1.0976.8008.5.1992 1 .3008 1.5.3008.8008 0 1.5-.2032 2.1016-.6016.6016-.3984 1-1 1.3008-1.8008h-1.6992c-.1016.1992-.2032.4024-.5.6016-.3008.1992-.6016.3008-1 .3008-.5 0-1-.1016-1.3008-.4024-.3008-.3984-.5-.8984-.5-1.5z" fill="#222"/>
</svg>
