<svg width="30" height="30" viewBox="0 0 30 30" xmlns="http://www.w3.org/2000/svg">
    <path d="M17.0146 5c-1.6993 0-3 1.414-3 3v2.0313c-2.1172.1445-4.0235.7539-5.5625 1.6875-.5586-.4375-1.2188-.6875-1.875-.6875-.7266 0-1.4336.2773-1.9375.8437-.957 1.1953-.8711 3.1484.4687 4.1563A4.9675 4.9675 0 005.0146 17c0 2.0547 1.2421 3.8438 3.0625 5.0625C9.8974 23.2813 12.3349 24 15.0146 24c2.6796 0 5.1171-.7188 6.9375-1.9375 1.8203-1.2188 3.0625-3.0078 3.0625-5.0625 0-.332-.0625-.6523-.125-.9688 1.3632-1.0859 1.5039-3.0273.5-4.1562-.504-.5664-1.211-.8438-1.9375-.8438-.6563 0-1.3164.25-1.875.6875-1.5391-.9335-3.4454-1.543-5.5625-1.6875V8c0-.6133.3007-1 1-1 .3203 0 .7734.1719 1.5312.4375.6719.2344 1.5625.4766 2.7188.5313A1.997 1.997 0 0023.0146 9c1.1015 0 2-.8984 2-2s-.8985-2-2-2c-.7266 0-1.3672.3828-1.7188.9688-.8867-.043-1.5117-.2032-2.0937-.4063C18.534 5.3281 17.8935 5 17.0146 5zm6 1c.6015 0 1 .3984 1 1s-.3985 1-1 1c-.6016 0-1-.3984-1-1s.3984-1 1-1zm-8 6c2.3203 0 4.3828.6367 5.8125 1.5938 1.4296.957 2.1875 2.1601 2.1875 3.4062 0 1.246-.7579 2.4492-2.1875 3.4063C19.3974 21.3633 17.3349 22 15.0146 22c-2.3204 0-4.3829-.6367-5.8125-1.5938-1.4297-.957-2.1875-2.1601-2.1875-3.4062 0-1.246.7578-2.4492 2.1875-3.4063C10.6317 12.6367 12.6942 12 15.0146 12zm-8.4063.0313c.332 0 .6836.0703 1 .25-.9648.7421-1.7148 1.6562-2.1562 2.6875-.582-.6875-.5704-1.7774-.0625-2.4375.2968-.336.746-.5 1.2187-.5zm16.8125 0c.4727 0 .9219.164 1.2188.5.4921.5546.5312 1.6445-.0625 2.4062-.4414-1.0234-1.1993-1.918-2.1563-2.6563.3164-.1796.668-.25 1-.25zM12.0146 14c-.8282 0-1.5.6719-1.5 1.5s.6718 1.5 1.5 1.5c.828 0 1.5-.6719 1.5-1.5s-.672-1.5-1.5-1.5zm6 0c-.8282 0-1.5.6719-1.5 1.5s.6718 1.5 1.5 1.5c.828 0 1.5-.6719 1.5-1.5s-.672-1.5-1.5-1.5zm1.0937 4.4063c-.8984.8007-2.3945 1.2812-4.0937 1.2812-1.6993 0-3.1954-.4883-4.0938-1.1875.5 1.3008 2.0938 2.5 4.0938 2.5s3.5937-1.1953 4.0937-2.5938z" fill="#222"/>
</svg>
