<?xml version="1.0" encoding="UTF-8"?>
<svg width="24px" height="24px" viewBox="0 0 24 24" version="1.1" xmlns="http://www.w3.org/2000/svg" xmlns:xlink="http://www.w3.org/1999/xlink">
    <title>icon-news-report</title>
    <defs>
        <polygon id="path-1" points="0 0 24 0 24 24 0 24"></polygon>
    </defs>
    <g id="icon-news-report" stroke="none" stroke-width="1" fill="none" fill-rule="evenodd">
        <mask id="mask-2" fill="white">
            <use xlink:href="#path-1"></use>
        </mask>
        <use id="BG" fill-opacity="0" fill="#000000" fill-rule="nonzero" xlink:href="#path-1"></use>
        <path d="M6.5,6 C5.675781,6 5,6.675781 5,7.5 L5,16.5 C5,17.324219 5.675781,18 6.5,18 L17.5,18 C18.324219,18 19,17.324219 19,16.5 L19,7.5 C19,6.675781 18.324219,6 17.5,6 L6.5,6 Z M6.5,7 L17.5,7 C17.78125,7 18,7.21875 18,7.5 L18,16.5 C18,16.78125 17.78125,17 17.5,17 L6.5,17 C6.21875,17 6,16.78125 6,16.5 L6,7.5 C6,7.21875 6.21875,7 6.5,7 Z M16.269531,9.023438 L14.5,10.792969 L13.726563,10.023438 L13.023438,10.726563 L14.144531,11.851563 C14.339844,12.046875 14.660156,12.046875 14.855469,11.851563 L16.980469,9.726563 L16.269531,9.023438 Z M8,10 L8,11 L12,11 L12,10 L8,10 Z M16.269531,12.023438 L14.5,13.792969 L13.726563,13.023438 L13.023438,13.726563 L14.144531,14.855469 C14.339844,15.046875 14.660156,15.046875 14.855469,14.855469 L16.980469,12.726563 L16.269531,12.023438 Z M8,13 L8,14 L12,14 L12,13 L8,13 Z" id="Shape" fill="#D15C22" mask="url(#mask-2)"></path>
    </g>
</svg>