<svg width="30" height="30" viewBox="0 0 30 30" xmlns="http://www.w3.org/2000/svg">
    <path d="M22.0872 7.9075C20.2064 6.0312 17.7064 5 15.0428 5c-5.4906 0-9.9571 4.4466-9.9571 9.9089a9.8024 9.8024 0 0 0 1.3279 4.9544L5 25l5.2804-1.3801c1.4525.7908 3.0919 1.2056 4.7585 1.2095h.004c5.4867 0 9.9532-4.4466 9.9571-9.9127 0-2.6478-1.032-5.1367-2.9128-7.0092zm-2.1729 10.5447c-.2064.5777-1.2227 1.1359-1.6783 1.1747-.4595.0426-.8879.2054-2.9868-.6164-2.5311-.9925-4.1277-3.5744-4.2523-3.741-.1246-.1629-1.0125-1.3414-1.0125-2.5587 0-1.2212.6425-1.8182.8684-2.0663.2298-.2481.4984-.3101.6659-.3101.1635 0 .331 0 .475.0077.1792.0039.3739.0155.5608.4265.222.4884.7048 1.7135.7672 1.8375.0623.124.105.2714.0194.4342-.0818.1667-.1246.2675-.2453.4148-.1246.1435-.261.3218-.3738.4303-.1246.1241-.2532.2598-.109.5079.144.2481.6425 1.0583 1.3823 1.7135.9502.8451 1.7524 1.1049 2.0016 1.229.2492.124.3933.1046.5374-.0621.148-.1628.623-.721.7905-.9692.1635-.248.331-.2054.5568-.124.2298.0814 1.4525.6823 1.7017.8063.2493.124.4128.1861.4751.2869.0623.1047.0623.6009-.144 1.1785z" fill="#222"/>
</svg>
